<svg xmlns="http://www.w3.org/2000/svg" xmlns:xlink="http://www.w3.org/1999/xlink" xmlns:lucid="lucid" width="1480" height="216"><g transform="translate(0 0)" lucid:page-tab-id="HWEp-vi-RSFO"><path d="M20 20h480v176H20z" stroke="#333" stroke-width="2" fill="#fff"/><path d="M20 57.6h480" stroke="#333" stroke-width="2" fill="none"/><use xlink:href="#a" transform="matrix(1,0,0,1,28,28) translate(197.05 14.6)"/><use xlink:href="#b" transform="matrix(1,0,0,1,32,65.6) translate(7.625000000000028 65.10000000000001)"/><use xlink:href="#c" transform="matrix(1,0,0,1,32,65.6) translate(23.12500000000003 65.10000000000001)"/><use xlink:href="#d" transform="matrix(1,0,0,1,32,65.6) translate(385.525 65.10000000000001)"/><path d="M501.5 108h81.12" stroke="#333" fill="none"/><path d="M501.5 108.5h-.5v-1h.5z" stroke="#333" stroke-width=".05" fill="#333"/><path d="M597.38 108l-14.26 4.64v-9.28z" stroke="#333" fill="#333"/><path d="M600 20h360v176H600z" stroke="#333" stroke-width="2" fill="#fff"/><path d="M600 57.6h360" stroke="#333" stroke-width="2" fill="none"/><use xlink:href="#e" transform="matrix(1,0,0,1,608,28) translate(149.075 14.6)"/><use xlink:href="#b" transform="matrix(1,0,0,1,612,65.6) translate(31.349999999999994 65.10000000000001)"/><use xlink:href="#f" transform="matrix(1,0,0,1,612,65.6) translate(46.849999999999994 65.10000000000001)"/><use xlink:href="#g" transform="matrix(1,0,0,1,612,65.6) translate(186.75 65.10000000000001)"/><use xlink:href="#h" transform="matrix(1,0,0,1,612,65.6) translate(266.65 65.10000000000001)"/><path d="M961.5 108h61.12" stroke="#333" fill="none"/><path d="M961.5 108.5h-.5v-1h.5z" stroke="#333" stroke-width=".05" fill="#333"/><path d="M1037.38 108l-14.26 4.64v-9.28z" stroke="#333" fill="#333"/><path d="M1040 20h420v176h-420z" stroke="#333" stroke-width="2" fill="#fff"/><path d="M1040 57.6h420" stroke="#333" stroke-width="2" fill="none"/><g><use xlink:href="#i" transform="matrix(1,0,0,1,1048,28) translate(169.025 14.6)"/></g><g><use xlink:href="#b" transform="matrix(1,0,0,1,1052,65.6) translate(39.97500000000002 65.10000000000001)"/><use xlink:href="#j" transform="matrix(1,0,0,1,1052,65.6) translate(55.47500000000002 65.10000000000001)"/><use xlink:href="#h" transform="matrix(1,0,0,1,1052,65.6) translate(318.025 65.10000000000001)"/></g><defs><path d="M185-189c-5-48-123-54-124 2 14 75 158 14 163 119 3 78-121 87-175 55-17-10-28-26-33-46l33-7c5 56 141 63 141-1 0-78-155-14-162-118-5-82 145-84 179-34 5 7 8 16 11 25" id="k"/><path d="M106-169C34-169 62-67 57 0H25v-261h32l-1 103c12-21 28-36 61-36 89 0 53 116 60 194h-32v-121c2-32-8-49-39-48" id="l"/><path d="M24-231v-30h32v30H24zM24 0v-190h32V0H24" id="m"/><path d="M115-194c55 1 70 41 70 98S169 2 115 4C84 4 66-9 55-30l1 105H24l-1-265h31l2 30c10-21 28-34 59-34zm-8 174c40 0 45-34 45-75s-6-73-45-74c-42 0-51 32-51 76 0 43 10 73 51 73" id="n"/><path d="M117-194c89-4 53 116 60 194h-32v-121c0-31-8-49-39-48C34-167 62-67 57 0H25l-1-190h30c1 10-1 24 2 32 11-22 29-35 61-36" id="o"/><path d="M177-190C167-65 218 103 67 71c-23-6-38-20-44-43l32-5c15 47 100 32 89-28v-30C133-14 115 1 83 1 29 1 15-40 15-95c0-56 16-97 71-98 29-1 48 16 59 35 1-10 0-23 2-32h30zM94-22c36 0 50-32 50-73 0-42-14-75-50-75-39 0-46 34-46 75s6 73 46 73" id="p"/><g id="a"><use transform="matrix(0.05,0,0,0.05,0,0)" xlink:href="#k"/><use transform="matrix(0.05,0,0,0.05,12,0)" xlink:href="#l"/><use transform="matrix(0.05,0,0,0.05,22,0)" xlink:href="#m"/><use transform="matrix(0.05,0,0,0.05,25.950000000000003,0)" xlink:href="#n"/><use transform="matrix(0.05,0,0,0.05,35.95,0)" xlink:href="#n"/><use transform="matrix(0.05,0,0,0.05,45.95,0)" xlink:href="#m"/><use transform="matrix(0.05,0,0,0.05,49.900000000000006,0)" xlink:href="#o"/><use transform="matrix(0.05,0,0,0.05,59.900000000000006,0)" xlink:href="#p"/></g><path fill="#333" d="M118-107v75H92v-75H18v-26h74v-75h26v75h74v26h-74" id="q"/><use transform="matrix(0.05,0,0,0.05,0,0)" xlink:href="#q" id="b"/><path fill="#333" d="M96-169c-40 0-48 33-48 73s9 75 48 75c24 0 41-14 43-38l32 2c-6 37-31 61-74 61-59 0-76-41-82-99-10-93 101-131 147-64 4 7 5 14 7 22l-32 3c-4-21-16-35-41-35" id="r"/><path fill="#333" d="M141-36C126-15 110 5 73 4 37 3 15-17 15-53c-1-64 63-63 125-63 3-35-9-54-41-54-24 1-41 7-42 31l-33-3c5-37 33-52 76-52 45 0 72 20 72 64v82c-1 20 7 32 28 27v20c-31 9-61-2-59-35zM48-53c0 20 12 33 32 33 41-3 63-29 60-74-43 2-92-5-92 41" id="s"/><path fill="#333" d="M24 0v-261h32V0H24" id="t"/><path fill="#333" d="M84 4C-5 8 30-112 23-190h32v120c0 31 7 50 39 49 72-2 45-101 50-169h31l1 190h-30c-1-10 1-25-2-33-11 22-28 36-60 37" id="u"/><path fill="#333" d="M59-47c-2 24 18 29 38 22v24C64 9 27 4 27-40v-127H5v-23h24l9-43h21v43h35v23H59v120" id="v"/><path fill="#333" d="M100-194c63 0 86 42 84 106H49c0 40 14 67 53 68 26 1 43-12 49-29l28 8c-11 28-37 45-77 45C44 4 14-33 15-96c1-61 26-98 85-98zm52 81c6-60-76-77-97-28-3 7-6 17-6 28h103" id="w"/><path fill="#333" d="M185-189c-5-48-123-54-124 2 14 75 158 14 163 119 3 78-121 87-175 55-17-10-28-26-33-46l33-7c5 56 141 63 141-1 0-78-155-14-162-118-5-82 145-84 179-34 5 7 8 16 11 25" id="x"/><path fill="#333" d="M106-169C34-169 62-67 57 0H25v-261h32l-1 103c12-21 28-36 61-36 89 0 53 116 60 194h-32v-121c2-32-8-49-39-48" id="y"/><path fill="#333" d="M24-231v-30h32v30H24zM24 0v-190h32V0H24" id="z"/><path fill="#333" d="M115-194c55 1 70 41 70 98S169 2 115 4C84 4 66-9 55-30l1 105H24l-1-265h31l2 30c10-21 28-34 59-34zm-8 174c40 0 45-34 45-75s-6-73-45-74c-42 0-51 32-51 76 0 43 10 73 51 73" id="A"/><path fill="#333" d="M117-194c89-4 53 116 60 194h-32v-121c0-31-8-49-39-48C34-167 62-67 57 0H25l-1-190h30c1 10-1 24 2 32 11-22 29-35 61-36" id="B"/><path fill="#333" d="M177-190C167-65 218 103 67 71c-23-6-38-20-44-43l32-5c15 47 100 32 89-28v-30C133-14 115 1 83 1 29 1 15-40 15-95c0-56 16-97 71-98 29-1 48 16 59 35 1-10 0-23 2-32h30zM94-22c36 0 50-32 50-73 0-42-14-75-50-75-39 0-46 34-46 75s6 73 46 73" id="C"/><path fill="#333" d="M160-131c35 5 61 23 61 61C221 17 115-2 30 0v-248c76 3 177-17 177 60 0 33-19 50-47 57zm-97-11c50-1 110 9 110-42 0-47-63-36-110-37v79zm0 115c55-2 124 14 124-45 0-56-70-42-124-44v89" id="D"/><path fill="#333" d="M179-190L93 31C79 59 56 82 12 73V49c39 6 53-20 64-50L1-190h34L92-34l54-156h33" id="E"/><path fill="#333" d="M212-179c-10-28-35-45-73-45-59 0-87 40-87 99 0 60 29 101 89 101 43 0 62-24 78-52l27 14C228-24 195 4 139 4 59 4 22-46 18-125c-6-104 99-153 187-111 19 9 31 26 39 46" id="F"/><path fill="#333" d="M135-143c-3-34-86-38-87 0 15 53 115 12 119 90S17 21 10-45l28-5c4 36 97 45 98 0-10-56-113-15-118-90-4-57 82-63 122-42 12 7 21 19 24 35" id="G"/><path fill="#333" d="M100-194c62-1 85 37 85 99 1 63-27 99-86 99S16-35 15-95c0-66 28-99 85-99zM99-20c44 1 53-31 53-75 0-43-8-75-51-75s-53 32-53 75 10 74 51 75" id="H"/><path fill="#333" d="M210-169c-67 3-38 105-44 169h-31v-121c0-29-5-50-35-48C34-165 62-65 56 0H25l-1-190h30c1 10-1 24 2 32 10-44 99-50 107 0 11-21 27-35 58-36 85-2 47 119 55 194h-31v-121c0-29-5-49-35-48" id="I"/><path fill="#333" d="M114-163C36-179 61-72 57 0H25l-1-190h30c1 12-1 29 2 39 6-27 23-49 58-41v29" id="J"/><path fill="#333" d="M205 0l-28-72H64L36 0H1l101-248h38L239 0h-34zm-38-99l-47-123c-12 45-31 82-46 123h93" id="K"/><path fill="#333" d="M85-194c31 0 48 13 60 33l-1-100h32l1 261h-30c-2-10 0-23-3-31C134-8 116 4 85 4 32 4 16-35 15-94c0-66 23-100 70-100zm9 24c-40 0-46 34-46 75 0 40 6 74 45 74 42 0 51-32 51-76 0-42-9-74-50-73" id="L"/><path fill="#333" d="M87 75C49 33 22-17 22-94c0-76 28-126 65-167h31c-38 41-64 92-64 168S80 34 118 75H87" id="M"/><g id="c"><use transform="matrix(0.05,0,0,0.05,0,0)" xlink:href="#r"/><use transform="matrix(0.05,0,0,0.05,9,0)" xlink:href="#s"/><use transform="matrix(0.05,0,0,0.05,19,0)" xlink:href="#t"/><use transform="matrix(0.05,0,0,0.05,22.95,0)" xlink:href="#r"/><use transform="matrix(0.05,0,0,0.05,31.950000000000003,0)" xlink:href="#u"/><use transform="matrix(0.05,0,0,0.05,41.95,0)" xlink:href="#t"/><use transform="matrix(0.05,0,0,0.05,45.900000000000006,0)" xlink:href="#s"/><use transform="matrix(0.05,0,0,0.05,55.900000000000006,0)" xlink:href="#v"/><use transform="matrix(0.05,0,0,0.05,60.900000000000006,0)" xlink:href="#w"/><use transform="matrix(0.05,0,0,0.05,70.9,0)" xlink:href="#x"/><use transform="matrix(0.05,0,0,0.05,82.9,0)" xlink:href="#y"/><use transform="matrix(0.05,0,0,0.05,92.9,0)" xlink:href="#z"/><use transform="matrix(0.05,0,0,0.05,96.85000000000001,0)" xlink:href="#A"/><use transform="matrix(0.05,0,0,0.05,106.85000000000001,0)" xlink:href="#A"/><use transform="matrix(0.05,0,0,0.05,116.85000000000001,0)" xlink:href="#z"/><use transform="matrix(0.05,0,0,0.05,120.80000000000001,0)" xlink:href="#B"/><use transform="matrix(0.05,0,0,0.05,130.8,0)" xlink:href="#C"/><use transform="matrix(0.05,0,0,0.05,140.8,0)" xlink:href="#D"/><use transform="matrix(0.05,0,0,0.05,152.8,0)" xlink:href="#E"/><use transform="matrix(0.05,0,0,0.05,161.8,0)" xlink:href="#F"/><use transform="matrix(0.05,0,0,0.05,174.75,0)" xlink:href="#u"/><use transform="matrix(0.05,0,0,0.05,184.75,0)" xlink:href="#G"/><use transform="matrix(0.05,0,0,0.05,193.75,0)" xlink:href="#v"/><use transform="matrix(0.05,0,0,0.05,198.75,0)" xlink:href="#H"/><use transform="matrix(0.05,0,0,0.05,208.75,0)" xlink:href="#I"/><use transform="matrix(0.05,0,0,0.05,223.69999999999996,0)" xlink:href="#w"/><use transform="matrix(0.05,0,0,0.05,233.69999999999996,0)" xlink:href="#J"/><use transform="matrix(0.05,0,0,0.05,239.64999999999998,0)" xlink:href="#K"/><use transform="matrix(0.05,0,0,0.05,251.64999999999998,0)" xlink:href="#L"/><use transform="matrix(0.05,0,0,0.05,261.65,0)" xlink:href="#L"/><use transform="matrix(0.05,0,0,0.05,271.65,0)" xlink:href="#J"/><use transform="matrix(0.05,0,0,0.05,277.59999999999997,0)" xlink:href="#w"/><use transform="matrix(0.05,0,0,0.05,287.59999999999997,0)" xlink:href="#G"/><use transform="matrix(0.05,0,0,0.05,296.59999999999997,0)" xlink:href="#G"/><use transform="matrix(0.05,0,0,0.05,305.59999999999997,0)" xlink:href="#M"/><use transform="matrix(0.05,0,0,0.05,311.54999999999995,0)" xlink:href="#F"/><use transform="matrix(0.05,0,0,0.05,324.49999999999994,0)" xlink:href="#t"/><use transform="matrix(0.05,0,0,0.05,328.44999999999993,0)" xlink:href="#z"/><use transform="matrix(0.05,0,0,0.05,332.3999999999999,0)" xlink:href="#w"/><use transform="matrix(0.05,0,0,0.05,342.3999999999999,0)" xlink:href="#B"/><use transform="matrix(0.05,0,0,0.05,352.3999999999999,0)" xlink:href="#v"/></g><path fill="#333" d="M33-261c38 41 65 92 65 168S71 34 33 75H2C39 34 66-17 66-93S39-220 2-261h31" id="N"/><path fill="#333" d="M33-154v-36h34v36H33zM33 0v-36h34V0H33" id="O"/><g id="d"><use transform="matrix(0.05,0,0,0.05,0,0)" xlink:href="#r"/><use transform="matrix(0.05,0,0,0.05,9,0)" xlink:href="#t"/><use transform="matrix(0.05,0,0,0.05,12.949999999999998,0)" xlink:href="#z"/><use transform="matrix(0.05,0,0,0.05,16.9,0)" xlink:href="#w"/><use transform="matrix(0.05,0,0,0.05,26.899999999999995,0)" xlink:href="#B"/><use transform="matrix(0.05,0,0,0.05,36.9,0)" xlink:href="#v"/><use transform="matrix(0.05,0,0,0.05,41.9,0)" xlink:href="#w"/><use transform="matrix(0.05,0,0,0.05,51.900000000000006,0)" xlink:href="#N"/><use transform="matrix(0.05,0,0,0.05,57.85,0)" xlink:href="#O"/></g><g id="e"><use transform="matrix(0.05,0,0,0.05,0,0)" xlink:href="#F"/><use transform="matrix(0.05,0,0,0.05,12.950000000000001,0)" xlink:href="#t"/><use transform="matrix(0.05,0,0,0.05,16.900000000000002,0)" xlink:href="#z"/><use transform="matrix(0.05,0,0,0.05,20.85,0)" xlink:href="#w"/><use transform="matrix(0.05,0,0,0.05,30.85,0)" xlink:href="#B"/><use transform="matrix(0.05,0,0,0.05,40.85,0)" xlink:href="#v"/></g><path fill="#333" d="M153-248C145-148 188 4 80 4 36 3 13-21 6-62l32-5c4 25 16 42 43 43 27 0 39-20 39-49v-147H72v-28h81" id="P"/><g id="f"><use transform="matrix(0.05,0,0,0.05,0,0)" xlink:href="#C"/><use transform="matrix(0.05,0,0,0.05,10,0)" xlink:href="#w"/><use transform="matrix(0.05,0,0,0.05,20,0)" xlink:href="#v"/><use transform="matrix(0.05,0,0,0.05,25,0)" xlink:href="#K"/><use transform="matrix(0.05,0,0,0.05,37,0)" xlink:href="#L"/><use transform="matrix(0.05,0,0,0.05,47,0)" xlink:href="#L"/><use transform="matrix(0.05,0,0,0.05,57,0)" xlink:href="#J"/><use transform="matrix(0.05,0,0,0.05,62.95,0)" xlink:href="#w"/><use transform="matrix(0.05,0,0,0.05,72.95,0)" xlink:href="#G"/><use transform="matrix(0.05,0,0,0.05,81.95,0)" xlink:href="#G"/><use transform="matrix(0.05,0,0,0.05,90.95,0)" xlink:href="#M"/><use transform="matrix(0.05,0,0,0.05,96.9,0)" xlink:href="#P"/><use transform="matrix(0.05,0,0,0.05,105.9,0)" xlink:href="#G"/><use transform="matrix(0.05,0,0,0.05,114.9,0)" xlink:href="#H"/><use transform="matrix(0.05,0,0,0.05,124.9,0)" xlink:href="#B"/></g><g id="g"><use transform="matrix(0.05,0,0,0.05,0,0)" xlink:href="#s"/><use transform="matrix(0.05,0,0,0.05,10,0)" xlink:href="#L"/><use transform="matrix(0.05,0,0,0.05,20,0)" xlink:href="#L"/><use transform="matrix(0.05,0,0,0.05,30,0)" xlink:href="#J"/><use transform="matrix(0.05,0,0,0.05,35.95,0)" xlink:href="#w"/><use transform="matrix(0.05,0,0,0.05,45.95,0)" xlink:href="#G"/><use transform="matrix(0.05,0,0,0.05,54.95,0)" xlink:href="#G"/><use transform="matrix(0.05,0,0,0.05,63.95,0)" xlink:href="#N"/><use transform="matrix(0.05,0,0,0.05,69.9,0)" xlink:href="#O"/></g><g id="h"><use transform="matrix(0.05,0,0,0.05,0,0)" xlink:href="#P"/><use transform="matrix(0.05,0,0,0.05,9,0)" xlink:href="#G"/><use transform="matrix(0.05,0,0,0.05,18,0)" xlink:href="#H"/><use transform="matrix(0.05,0,0,0.05,28,0)" xlink:href="#B"/></g><g id="i"><use transform="matrix(0.05,0,0,0.05,0,0)" xlink:href="#K"/><use transform="matrix(0.05,0,0,0.05,12,0)" xlink:href="#L"/><use transform="matrix(0.05,0,0,0.05,22,0)" xlink:href="#L"/><use transform="matrix(0.05,0,0,0.05,32,0)" xlink:href="#J"/><use transform="matrix(0.05,0,0,0.05,37.95,0)" xlink:href="#w"/><use transform="matrix(0.05,0,0,0.05,47.95,0)" xlink:href="#G"/><use transform="matrix(0.05,0,0,0.05,56.95,0)" xlink:href="#G"/></g><path fill="#333" d="M24-231v-30h32v30H24zM-9 49c24 4 33-6 33-30v-209h32V24c2 40-23 58-65 49V49" id="Q"/><path fill="#333" d="M63-220v92h138v28H63V0H30v-248h175v28H63" id="R"/><g id="j"><use transform="matrix(0.05,0,0,0.05,0,0)" xlink:href="#Q"/><use transform="matrix(0.05,0,0,0.05,3.95,0)" xlink:href="#G"/><use transform="matrix(0.05,0,0,0.05,12.949999999999998,0)" xlink:href="#H"/><use transform="matrix(0.05,0,0,0.05,22.95,0)" xlink:href="#B"/><use transform="matrix(0.05,0,0,0.05,32.95,0)" xlink:href="#R"/><use transform="matrix(0.05,0,0,0.05,43.900000000000006,0)" xlink:href="#H"/><use transform="matrix(0.05,0,0,0.05,53.900000000000006,0)" xlink:href="#J"/><use transform="matrix(0.05,0,0,0.05,59.85,0)" xlink:href="#I"/><use transform="matrix(0.05,0,0,0.05,74.80000000000001,0)" xlink:href="#s"/><use transform="matrix(0.05,0,0,0.05,84.80000000000001,0)" xlink:href="#v"/><use transform="matrix(0.05,0,0,0.05,89.80000000000001,0)" xlink:href="#v"/><use transform="matrix(0.05,0,0,0.05,94.80000000000001,0)" xlink:href="#w"/><use transform="matrix(0.05,0,0,0.05,104.80000000000001,0)" xlink:href="#L"/><use transform="matrix(0.05,0,0,0.05,114.80000000000001,0)" xlink:href="#K"/><use transform="matrix(0.05,0,0,0.05,126.80000000000001,0)" xlink:href="#L"/><use transform="matrix(0.05,0,0,0.05,136.8,0)" xlink:href="#L"/><use transform="matrix(0.05,0,0,0.05,146.8,0)" xlink:href="#J"/><use transform="matrix(0.05,0,0,0.05,152.75,0)" xlink:href="#w"/><use transform="matrix(0.05,0,0,0.05,162.75,0)" xlink:href="#G"/><use transform="matrix(0.05,0,0,0.05,171.75,0)" xlink:href="#G"/><use transform="matrix(0.05,0,0,0.05,180.75,0)" xlink:href="#M"/><use transform="matrix(0.05,0,0,0.05,186.7,0)" xlink:href="#A"/><use transform="matrix(0.05,0,0,0.05,196.7,0)" xlink:href="#s"/><use transform="matrix(0.05,0,0,0.05,206.69999999999996,0)" xlink:href="#J"/><use transform="matrix(0.05,0,0,0.05,212.64999999999998,0)" xlink:href="#s"/><use transform="matrix(0.05,0,0,0.05,222.64999999999998,0)" xlink:href="#I"/><use transform="matrix(0.05,0,0,0.05,237.59999999999997,0)" xlink:href="#G"/><use transform="matrix(0.05,0,0,0.05,246.59999999999997,0)" xlink:href="#N"/><use transform="matrix(0.05,0,0,0.05,252.54999999999995,0)" xlink:href="#O"/></g></defs></g></svg>